<svg xmlns="http://www.w3.org/2000/svg" xmlns:xlink="http://www.w3.org/1999/xlink" id="Calque_1" data-name="Calque 1" viewBox="0 0 2007.96 475.22"><defs><style> .cls-1 { fill: #f5f5f5; } .cls-1, .cls-2 { stroke-width: 0px; } .cls-2 { fill: none; } .cls-3 { clip-path: url(#clippath); } </style><clipPath id="clippath"><rect class="cls-2" x="-3" y="0" width="2011.96" height="438.11"></rect></clipPath></defs><g class="cls-3"><path class="cls-1" d="M2010.82,221.95l2.34,259.87-2045.2-13.55L-9.36,19.8l30.51,9.93,22.68-18.05,25.02,27.7,18.77-6.05,21.9,6.05,14.86,8.39,10.95-8.39,45.37,44.49h21.11s16.42-11.74,16.42-11.74l27.38,22.56,24.24,18.95,7.03,13.53,22.68-5.5,21.9,16.33,25.81,26.17,28.94,7.22,50.06-22.56,36.76,21.65,30.51-2.71,24.24-12.63,26.59,7.22,10.17,9.93,39.1-13.53,76.64-14.44,31.29,1.81,23.46-2.71,39.1,13.53,50.06-39.7,28.16-3.61,36.76,8.03,22.68,9.11,47.71,1.81,28.16-18.95,13.3,2.71h35.98s24.24-15.34,24.24-15.34l12.52,1.81,20.33-12.63,17.21-6.31,39.1-28.87,28.16,6.31,14.86-6.31,14.86,5.41,23.46-12.63,59.44,47.82,89.16-63.16,21.9-10.83,59.44,61.36,23.46,18.05,31.29,34.83,49.28.36s12.52,12.63,14.86,12.63,32.07-8.12,32.07-8.12l35.19,6.31,20.33,22.56,20.33-10.83,22.68,11.74,46.93,2.71,17.99,11.74,21.11-6.31,52.4,19.85,37.54-24.36,16.43-6.31,30.51,16.24,22.68,24.82,34.41-13.08,29.72,26.17h0Z"></path></g><rect class="cls-1" x="-30.15" y="377.67" width="2039.11" height="97.55"></rect></svg>