<?xml version="1.0" encoding="UTF-8"?> <svg xmlns="http://www.w3.org/2000/svg" id="Calque_2" viewBox="0 0 461.18 90"><defs><style>.cls-1{opacity:.88;}.cls-1,.cls-2,.cls-3,.cls-4,.cls-5,.cls-6,.cls-7,.cls-8,.cls-9,.cls-10,.cls-11,.cls-12,.cls-13,.cls-14,.cls-15,.cls-16,.cls-17,.cls-18,.cls-19,.cls-20,.cls-21,.cls-22,.cls-23,.cls-24,.cls-25,.cls-26,.cls-27{fill:#fff;}.cls-2{opacity:.45;}.cls-3{opacity:.92;}.cls-5{opacity:.34;}.cls-6{opacity:.9;}.cls-7{opacity:.38;}.cls-8{opacity:.4;}.cls-9{opacity:.3;}.cls-10{opacity:.26;}.cls-11{opacity:.95;}.cls-12{opacity:.86;}.cls-13{opacity:.5;}.cls-14{opacity:.98;}.cls-15{opacity:.8;}.cls-16{opacity:.7;}.cls-28{fill:#8ba6c6;}.cls-17{opacity:.75;}.cls-18{opacity:.43;}.cls-19{opacity:.33;}.cls-20{opacity:.2;}.cls-29{fill:#21477c;}.cls-21{opacity:.35;}.cls-22{opacity:.15;}.cls-23{opacity:.13;}.cls-24{opacity:.28;}.cls-25{opacity:.85;}.cls-26{opacity:.91;}.cls-27{opacity:.93;}</style></defs><g id="logo_clayverest_blue"><g id="BG_-_copie_4"><path class="cls-29" d="m90,45c0,6.35-1.32,12.4-3.69,17.88-.02.04-.04.08-.05.13-.02.05-.05.11-.07.16-.01.03-.03.06-.04.1-.02.04-.04.09-.05.13-.68,1.52-1.45,2.99-2.28,4.41h0s-.03.05-.04.07c-.05.08-.09.16-.14.23h0c-.8,1.34-1.66,2.62-2.59,3.86-.06.08-.13.17-.19.25-.05.06-.09.12-.14.18-.92,1.2-1.9,2.35-2.94,3.45-.02.02-.05.05-.07.07-.07.07-.13.14-.2.21-1.72,1.79-3.58,3.44-5.57,4.93-.03.02-.05.04-.08.06-.04.03-.08.06-.12.09-3.15,2.33-6.62,4.26-10.33,5.71h0c-.08.03-.15.06-.23.09-.08.03-.16.06-.24.09h0c-1.61.6-3.25,1.12-4.94,1.55-.01,0-.03,0-.04.01-.02,0-.05.01-.08.02-.03,0-.06.02-.09.02-3,.74-6.11,1.17-9.31,1.27-.01,0-.02,0-.03,0h0c-.08,0-.16,0-.24,0-.39,0-.79.01-1.18.01-1.47,0-2.92-.07-4.36-.21-.09,0-.18-.02-.26-.02-.01,0-.02,0-.03,0h0s-.05,0-.07,0c-4.43-.46-8.67-1.57-12.62-3.22-.06-.02-.11-.04-.17-.07,0,0,0,0,0,0-.02,0-.04-.02-.06-.03-4.38-1.86-8.4-4.4-11.94-7.47-.04-.04-.08-.07-.11-.1-.01,0-.02-.02-.03-.03-.01,0-.02-.02-.03-.02-1.99-1.75-3.82-3.67-5.48-5.74-.04-.05-.08-.1-.12-.15h0s-.04-.04-.05-.06c-.12-.15-.24-.3-.36-.46-.03-.04-.06-.08-.09-.12-.03-.04-.06-.08-.09-.12-2.23-2.95-4.11-6.18-5.57-9.63-.03-.08-.06-.15-.09-.22-.01-.02-.02-.04-.03-.06-2.2-5.31-3.42-11.13-3.42-17.24C0,20.15,20.14,0,45,0s45,20.15,45,45Z"></path></g><g id="zoneFonce_-_copie_4"><polygon class="cls-8" points="42.71 16.5 48.25 16.18 44.22 20.16 41.66 18.6 42.71 16.5"></polygon><polygon class="cls-9" points="39.63 18.91 41.66 18.6 44.22 20.16 42.2 23.93 39.45 20.8 39.63 18.91"></polygon><polygon class="cls-18" points="34.12 24.07 39.71 28.65 42.2 23.93 39.45 20.8 34.12 24.07"></polygon><polygon class="cls-20" points="33.61 26.3 39.71 28.65 34.12 24.07 33.61 26.3"></polygon><polygon class="cls-20" points="42.2 23.93 45.33 24.86 45.9 22.08 44.22 20.16 42.2 23.93"></polygon><polygon class="cls-20" points="44.16 27.96 39.71 28.65 42.2 23.93 45.33 24.86 44.16 27.96"></polygon><polygon class="cls-20" points="48.02 24.8 45.33 24.86 45.9 22.08 48.02 24.8"></polygon><polygon class="cls-20" points="49.74 30.05 44.16 27.96 45.33 24.86 48.02 24.8 49.74 30.05"></polygon><polygon class="cls-20" points="42.97 36.43 44.16 27.96 39.71 28.65 42.97 36.43"></polygon><polygon class="cls-19" points="34.69 35.69 39.71 28.65 33.61 26.3 30.51 28.02 34.69 35.69"></polygon><polygon class="cls-22" points="30.51 32.67 34.69 35.69 30.51 28.02 30.51 32.67"></polygon><polygon class="cls-13" points="25.74 35.63 34.69 35.69 30.51 32.67 25.74 35.63"></polygon><polygon class="cls-20" points="31.63 40.26 34.69 35.69 26 35.63 25.32 39.32 31.63 40.26"></polygon><polygon class="cls-2" points="27.1 44.44 31.7 40.37 24.91 39.24 21.23 40.75 27.1 44.44"></polygon><polygon class="cls-22" points="22.52 48.68 27.1 44.44 21.23 40.75 21.23 46.42 22.52 48.68"></polygon><polygon class="cls-21" points="31.63 40.26 35.53 56.13 44.41 44.65 34.69 35.69 31.63 40.26"></polygon><polygon class="cls-20" points="50.13 46.89 49.08 34.79 46.91 35.18 44.41 44.65 50.13 46.89"></polygon><polygon class="cls-5" points="49 53.9 50.15 46.85 44.41 44.65 35.53 56.13 49 53.9"></polygon><polygon class="cls-22" points="50.06 71.92 35.53 56.13 49 53.9 56.9 57.34 50.06 71.92"></polygon><polygon class="cls-20" points="53.59 48.08 56.9 57.34 59.7 54.09 53.59 48.08"></polygon><polygon class="cls-21" points="58.19 46.03 61.76 49.49 59.7 54.09 53.59 48.08 58.19 46.03"></polygon><polygon class="cls-20" points="64.46 63.42 59.7 54.09 56.9 57.34 64.46 63.42"></polygon><polygon class="cls-24" points="50.06 71.92 64.46 63.42 56.9 57.34 50.06 71.92"></polygon><polygon class="cls-7" points="71.27 77.32 64.46 63.42 50.06 71.92 71.27 77.32"></polygon><polygon class="cls-10" points="55.5 86.59 71.27 77.32 50.06 71.92 55.5 86.59"></polygon><path class="cls-9" d="m73.17,67.72l7.67,4.5c-.05.06-.09.12-.14.18-.92,1.2-1.9,2.35-2.94,3.45-.02.02-.05.05-.07.07l-6.14,1.34-.27.06h-.01s0,0,0,0h0s1.75-9.63,1.75-9.63h0v-.04s.14.08.14.08Z"></path><path class="cls-23" d="m71.55,77.26l6.14-1.34c-.07.07-.13.14-.2.21-1.72,1.79-3.58,3.44-5.57,4.93-.03.02-.05.04-.08.06l-.54-3.59v-.08s-.03-.12-.03-.12h.01s.27-.06.27-.06Z"></path><path class="cls-18" d="m71.3,77.52l.54,3.59s-.08.06-.12.09c-3.15,2.33-6.62,4.26-10.33,5.71h0c-.08.03-.15.06-.23.09l-5.52-.41h-.08s-.02,0-.02,0h-.02s-.02,0-.02,0h.01s0,0,0,0h0s.23-.14.23-.14h0s15.27-8.97,15.27-8.97l.13-.08.12-.07.02.12v.08Z"></path><path class="cls-20" d="m55.64,86.6l5.52.41c-.08.03-.16.06-.24.09h0c-1.61.6-3.25,1.12-4.94,1.55-.01,0-.03,0-.04.01-.02,0-.05.01-.08.02l-.35-2.04v-.05s0,0,0,0h.02s.02,0,.02,0h.08Z"></path><path class="cls-20" d="m55.93,88.66s-.05.01-.08.02c-.03,0-.06.02-.09.02-3,.74-6.11,1.17-9.31,1.27-.01,0-.02,0-.03,0h0l4.52-6.07.04-.05h0s.02.01.02.01l.05.03.18.11,3.99,2.39.03.02.23.14h.02s0,.02,0,.02h0s.02.01.02.01h.01s.05.04.05.04l.02.1.32,1.93Z"></path><path class="cls-20" d="m51.14,83.65h0s-.04.07-.04.07l-.05.06-.05.07h0s-.02.04-.02.04h0l-4.52,6.08h0c-.08,0-.16,0-.24,0-.39,0-.79.01-1.18.01-1.47,0-2.92-.07-4.36-.21-.09,0-.18-.02-.26-.02l10.48-5.95.05-.03.09-.05.1-.05.05-.03h0Z"></path><path class="cls-22" d="m50.95,83.71l-.05.03-.03.02-10.53,6.01h0s-.05,0-.07,0c-4.43-.46-8.67-1.57-12.62-3.22-.06-.02-.11-.04-.17-.07l-2.46-13.59v-.03s.01-.02.01-.02l6.37-7.27.11-.13.08.08,19.31,18.18.03.02.02.02Z"></path><polygon class="cls-24" points="16.59 53.47 25.03 72.74 31.52 65.42 21.23 46.42 16.59 53.47"></polygon><polygon class="cls-20" points="11.43 57.59 9.11 72.92 25.01 72.81 16.59 53.47 11.43 57.59"></polygon><path class="cls-20" d="m24.85,72.87h0s0,0,0,0l-9.52,5.96s-.02-.02-.03-.02c-1.99-1.75-3.82-3.67-5.48-5.74h-.63s-.11.01-.11.01l.02-.16h.6s15.09-.05,15.09-.05h.06Z"></path><path class="cls-5" d="m27.48,86.46s-.04-.02-.06-.03c-4.38-1.86-8.4-4.4-11.94-7.47-.04-.04-.08-.07-.11-.1l9.65-5.99,2.46,13.59Z"></path><polygon class="cls-28" points="9.11 72.92 9.09 73.08 8.98 73.08 9.01 72.88 9.11 72.92"></polygon><path class="cls-21" d="m11.43,57.59l-.02.14-2.2,14.55-.09.58v.06s-.11-.04-.11-.04l-.05-.02h.05l.11-.7c-2.23-2.95-4.11-6.18-5.57-9.63-.03-.08-.06-.15-.09-.22l.59-.79,4.64-5.13,2.63,1.15.13.06Z"></path></g><g id="zoneClaire_-_copie_4"><polygon class="cls-12" points="39.71 28.65 34.69 35.69 42.97 36.43 39.71 28.65"></polygon><polygon class="cls-11" points="44.16 27.96 42.97 36.43 49.74 30.05 44.16 27.96"></polygon><polygon class="cls-11" points="45.86 22.35 48.02 24.8 53.27 23 48.26 16.07 45.86 22.35"></polygon><polygon class="cls-25" points="48.02 24.8 49.74 30.05 56.67 24.89 53.27 23 48.02 24.8"></polygon><polygon class="cls-17" points="42.97 36.43 44.41 44.65 46.91 35.18 49.74 30.05 42.97 36.43"></polygon><polygon class="cls-15" points="44.41 44.65 34.69 35.69 42.97 36.43 44.41 44.65"></polygon><polygon class="cls-1" points="46.91 35.18 49.08 34.79 56.67 24.89 49.74 30.05 46.91 35.18"></polygon><polygon class="cls-3" points="50.15 46.85 49.08 34.79 56.67 24.89 60.28 31.63 50.15 46.85"></polygon><path class="cls-1" d="m53.59,48.08l-3.45-1.23,10.13-15.22,3.2,6.15-5.29,8.24s-4.8,2.15-4.59,2.05Z"></path><polygon class="cls-15" points="61.76 49.49 58.19 46.03 63.48 37.78 66.43 43.3 61.76 49.49"></polygon><polygon class="cls-15" points="59.7 54.09 69.51 43.75 66.43 43.3 61.76 49.49 59.7 54.09"></polygon><polygon class="cls-27" points="64.46 63.42 59.7 54.09 69.51 43.75 71.52 46.89 64.46 63.42"></polygon><polygon class="cls-15" points="73.03 67.64 70.61 48.92 64.46 63.42 73.03 67.64"></polygon><polygon class="cls-11" points="77.79 58.91 73.03 67.64 70.61 48.92 77.79 58.91"></polygon><polygon class="cls-15" points="71.27 77.32 64.46 63.42 73.03 67.64 71.27 77.32"></polygon><path class="cls-15" d="m82.86,60.75l.9,7.13c-.05.08-.09.16-.14.23h0c-.8,1.34-1.66,2.62-2.59,3.86-.06.08-.13.17-.19.25l-7.67-4.5-.13-.08.03-.05.07-.13.06-.11h0l4.46-8.19.07-.13.07-.13h.03s.18.06.18.06h0s.7.22.7.22h.02s3.96,1.23,3.96,1.23l.14.04v.1h.01l.02.19h0Z"></path><path class="cls-14" d="m86.18,63.17s-.03.06-.04.1c-.02.04-.04.09-.05.13-.68,1.52-1.45,2.99-2.28,4.41h0s-.03.05-.04.07l-.9-7.13h0l-.02-.19h0v-.1s.08.08.08.08l3.27,2.63Z"></path><polygon class="cls-15" points="50.15 46.85 49.05 54.18 56.9 57.34 53.59 48.08 50.15 46.85"></polygon><path class="cls-26" d="m31.63,40.26l-4.53,4.18s4.27,21.06,4.41,20.97,4.01-9.28,4.01-9.28l-3.9-15.87Z"></path><polygon class="cls-15" points="27.1 44.44 22.52 48.68 31.52 65.42 27.1 44.44"></polygon><polygon class="cls-1" points="35.53 56.13 31.52 65.42 50.06 71.92 35.53 56.13"></polygon><polygon class="cls-16" points="31.52 65.42 51.1 83.83 49.97 71.82 31.52 65.42"></polygon><polygon class="cls-15" points="50.06 71.92 51.08 83.61 55.5 86.59 50.06 71.92"></polygon><polygon class="cls-6" points="44.17 20.18 45.86 22.35 48.12 16.38 44.17 20.18 44.17 20.18"></polygon></g><g id="edge_-_copie_4"><polygon class="cls-4" points="46.92 35.35 46.73 35.25 49.59 29.94 49.78 30.04 46.92 35.35"></polygon><path class="cls-4" d="m59.72,54.29l-6.34-6.11-3.55-1.18,10.16-15.25.18.12-10.01,15.01,3.35,1.13,6.24,6.01c.69-.61,6-6.3,9.54-10.13l.16.15c-.95,1.02-9.25,9.99-9.65,10.22l-.07.04Z"></path><rect class="cls-4" x="56.01" y="41.84" width="9.63" height=".22" transform="translate(-7.15 70.91) rotate(-57.67)"></rect><rect class="cls-4" x="60.2" y="46.31" width="7.68" height=".22" transform="translate(-11.88 68.62) rotate(-52.24)"></rect><path class="cls-4" d="m73.17,67.72l-.02-.12-.02-.13v-.11s-.02-.07-.02-.07l-2.33-17.45-.04-.26-.08-.58v-.09s-.03-.14-.03-.14l-.15.35-.09.21-5.88,13.78-.1.23-.02.04h0s-.05.11-.05.11v.03s-.05.1-.05.1l.15.07.18.09.28.13,7.85,3.66.27.13h0l.14.06v-.02Zm-7.76-3.84h0l-.65-.3-.17-.08v-.02s.06-.13.06-.13l5.88-13.78,2.37,17.81-7.46-3.48-.04-.02Z"></path><path class="cls-4" d="m73.11,67.64l-.15-.15c.4-.4,3.24-5.85,4.68-8.68l.19.1c-.17.34-4.2,8.22-4.72,8.74Z"></path><rect class="cls-4" x="40.71" y="20.29" width=".22" height="4.21" transform="translate(-4.67 32.31) rotate(-41.05)"></rect><polygon class="cls-4" points="39.78 28.77 33.55 26.4 33.63 26.2 39.23 28.33 34.1 24.15 34.23 23.99 39.89 28.59 39.78 28.77"></polygon><polygon class="cls-4" points="42.88 36.61 34.74 35.81 34.66 35.76 30.42 28.31 30.61 28.2 34.82 35.6 42.85 36.39 49.63 29.92 56.47 24.96 56.62 25.11 49.05 34.97 48.88 34.83 55.99 25.57 49.77 30.08 42.97 36.58 42.88 36.61"></polygon><polygon class="cls-4" points="35.1 35.81 26.16 35.81 26.16 35.59 34.41 35.59 30.34 32.81 30.46 32.63 35.1 35.81"></polygon><polygon class="cls-4" points="31.71 40.52 25.34 39.36 25.38 39.15 31.61 40.28 34.66 35.64 34.85 35.76 31.71 40.52"></polygon><rect class="cls-4" x="21.76" y="46.34" width=".22" height="2.59" transform="translate(-20.28 16.47) rotate(-28.87)"></rect><polygon class="cls-4" points="31.7 65.37 31.5 65.35 26.98 44.65 21.23 40.78 21.35 40.6 27.14 44.5 27.18 44.56 31.64 64.97 35.36 55.99 44.15 44.61 42.79 36.52 43 36.49 44.37 44.62 44.35 44.71 35.54 56.11 31.7 65.37"></polygon><path class="cls-4" d="m35.47,56.2l-.02-.1-.11-.03q.02-.07,2.23-.42c1.28-.2,3-.46,4.71-.73l6.85-1.05.03.21c-.13.02-13.48,2.07-13.69,2.11Z"></path><rect class="cls-4" x="47.03" y="42.7" width=".22" height="6.17" transform="translate(-12.89 72.54) rotate(-68.2)"></rect><path class="cls-4" d="m63.82,62.91l-1.28-1.03-.12-.1-5.51-4.43h0s-.01.02-.01.02h0s-4.57,9.74-4.57,9.74l4.54-9.56,7.2,5.84-.23-.47Zm0,0l-1.28-1.03-.12-.1-5.51-4.43h0s-.01.02-.01.02h0s-4.57,9.74-4.57,9.74l4.54-9.56,7.2,5.84-.23-.47Zm0,0l-1.28-1.03-.12-.1-5.51-4.43h0s-.01.02-.01.02h0s-4.57,9.74-4.57,9.74l4.54-9.56,7.2,5.84-.23-.47Zm0,0l-1.28-1.03-.12-.1-5.51-4.43h0s-.01.02-.01.02h0s-4.57,9.74-4.57,9.74l4.54-9.56,7.2,5.84-.23-.47Zm0,0l-1.28-1.03-.12-.1-5.51-4.43h0s-.01.02-.01.02h0s-4.57,9.74-4.57,9.74l4.54-9.56,7.2,5.84-.23-.47Zm.65.53h0s-.02-.02-.02-.02l-.05-.05-.57-.47-1.28-1.03-.12-.1-5.45-4.42,2.63-2.99.09-.11.06-.07.04-.04-.07-.06h0s-.08-.08-.08-.08h0s-.09.11-.09.11h0s-2.53,2.89-2.53,2.89l-.15.17-.09.1h0s-.02.02-.02.02l-.1.21-6.62,13.95-.13.27h0s-.02.05-.02.05l-.02.04.05.04h0s.04.04.04.04l.05.05h0s.06-.03.06-.03h0s.17-.1.17-.1l.02-.02,14-8.02.19-.11.05-.03v-.14s.01-.04.01-.04l-.03-.02Zm-12.29,3.94l.04-.09.09-.19,4.54-9.56,7.2,5.84.2.16-.09.05-13.94,7.99-.03.02,2-4.21Zm11.64-4.47l-1.28-1.03-.12-.1-5.51-4.43h0s-.01.02-.01.02h0s-4.57,9.74-4.57,9.74l4.54-9.56,7.2,5.84-.23-.47Zm0,0l-1.28-1.03-.12-.1-5.51-4.43h0s-.01.02-.01.02h0s-4.57,9.74-4.57,9.74l4.54-9.56,7.2,5.84-.23-.47Zm0,0l-1.28-1.03-.12-.1-5.51-4.43h0s-.01.02-.01.02h0s-4.57,9.74-4.57,9.74l4.54-9.56,7.2,5.84-.23-.47Zm0,0l-1.28-1.03-.12-.1-5.51-4.43h0s-.01.02-.01.02h0s-4.57,9.74-4.57,9.74l4.54-9.56,7.2,5.84-.23-.47Zm0,0l-1.28-1.03-.12-.1-5.51-4.43h0s-.01.02-.01.02h0s-4.57,9.74-4.57,9.74l4.54-9.56,7.2,5.84-.23-.47Z"></path><path class="cls-4" d="m71.56,77.24l6.21-1.39s-.05.05-.07.07c-.07.07-.13.14-.2.21l-6.11,1.38c.17,1.11.35,2.32.54,3.56-.03.02-.05.04-.08.06-.04.03-.08.06-.12.09-.17-1.11-.35-2.31-.55-3.61,0-.04-.01-.09-.02-.13,0,0,0-.02,0-.03v-.04s-.02-.06-.02-.06l.1-.02h.02s0,0,0,0h.01s.28-.06.28-.06Z"></path><path class="cls-4" d="m82.95,60.83l.85,6.98h0s-.03.05-.04.07c-.05.08-.09.16-.14.23l-.91-7.48-.02-.17v-.04s-.01-.06-.01-.06l.22-.03.02.21v.1s.04.19.04.19h0Z"></path><path class="cls-4" d="m71.3,77.44v.07s0,0,0,0c-.03.02-.07.04-.12.07-1.49.87-13.12,7.71-15.26,8.93l5.47.39c-.08.03-.15.06-.23.09-.08.03-.16.06-.24.09h0l-5.25-.38h-.05s-.08,0-.08,0l-.02-.1v-.04s0,0,0,0h0s-.01-.06-.01-.06c.04-.02.13-.07.27-.15,1.96-1.12,13.46-7.88,15.21-8.91l-20.63-5.37h0s-.26-.07-.26-.07h-.03s-.08-.03-.08-.03l-.08-.02.02-.07v-.02s.02-.06.02-.06h0s.01-.05.01-.05l.15.04.1.03h0s.03.01.03.01l20.62,5.38.38.1h.01s.01,0,.01,0h0s.02.13.02.13Z"></path><path class="cls-4" d="m50.94,83.69l-.03.04.05-.03-.02-.02Zm-18.6-18h0s-.13-.05-.13-.05l.04.02h0s.1.04.1.04h0Zm18.87,17.62l-1.02-10.18-.11-1.13v-.09s0,0,0,0v-.13s-.09-.03-.09-.03l-.08-.03h0s-.52-.19-.52-.19l-17.41-6.21-.2-.07-.11-.04h-.02s-.02-.01-.02-.01h-.03s-.08.08-.08.08l-.02.02h0s-.12.14-.12.14l-6.28,7.19-8.29-19.23-.06-.14-.03-.07-.11.05-.09.04.02.06.06.14.05.13,8.22,19.05.06.14h0s-.01.01-.01.01h-.01l-.09.06h0s-9.49,5.94-9.49,5.94c0,0,.02.01.03.02,0,.01.02.02.03.03.04.03.08.06.11.1l9.48-5.93,2.46,13.4s.04.02.06.03c0,0,0,0,0,0,.06.02.11.05.17.07l-2.51-13.64,6.34-7.25.12-.15.04-.04.22.08h.04s.06.04.06.04l.08.03h.02s.01.01.01.01l.05.02h.02s.03.02.03.02h.03s0,.01,0,.01l.04.02h0s.1.04.1.04l17.33,6.18.17.06.04.42,1.07,10.74.05.5-.02.02-.05.06h0s-.03.05-.03.05l-.02.03-.04.05-.19.25-4.48,5.93c.08,0,.16,0,.24,0h0s.02,0,.03,0l4.59-6.07h0s.08-.11.08-.11l.04-.05.03-.04h0s.02-.04.02-.04l-.04-.34Zm-18.87-17.62h0s-.13-.05-.13-.05l.04.02h0s.1.04.1.04h0Z"></path><polygon class="cls-4" points="11.54 57.44 11.53 57.52 11.5 57.71 9.3 72.4 9.23 72.86 9.22 72.92 9.2 73.08 9.09 73.08 8.98 73.08 9.01 72.88 9.01 72.86 9.12 72.16 11.28 57.68 11.31 57.54 11.32 57.41 11.35 57.41 11.43 57.42 11.54 57.44"></polygon><polygon class="cls-4" points="25.03 72.82 25.03 72.87 25.01 72.87 24.85 72.87 24.79 72.87 9.82 73.07 9.2 73.08 9.09 73.08 8.98 73.08 9.01 72.88 8.96 72.86 9.12 72.86 9.23 72.86 9.66 72.86 24.84 72.66 24.94 72.65 25.03 72.65 25.03 72.74 25.03 72.82"></polygon><path class="cls-4" d="m55.98,88.65s-.03,0-.04.01c-.02,0-.05.01-.08.02-.03,0-.06.02-.09.02l-.32-2.01-.02-.09h.06s0-.01,0-.01h.02s0,0,0,0h.07s.05-.02.05-.02v.04s.03.13.03.13l.31,1.92Z"></path><path class="cls-4" d="m51.19,83.76l-.05.03-.04.02h-.01s-.08.05-.08.05h-.01s-.04.03-.04.03h-.02s-.28.17-.28.17l-10.02,5.73c-.09,0-.18-.02-.26-.02-.01,0-.02,0-.03,0h0s-.05,0-.07,0l10.56-6.04.08-.05h0s.07-.05.07-.05l.08-.05h.01s.04.06.04.06v.02s.01,0,.01,0l.05.08v.02Z"></path><polygon class="cls-4" points="39.6 28.85 44.01 20.26 41.67 18.62 41.79 18.44 44.29 20.2 39.99 28.57 44.07 27.93 45.08 24.72 45.29 24.79 44.24 28.12 39.6 28.85"></polygon><polygon class="cls-4" points="47.95 25.04 45.11 24.85 42.33 23.96 42.4 23.75 45.15 24.64 47.92 24.82 53.2 22.79 53.28 22.99 47.95 25.04"></polygon><polygon class="cls-4" points="45.32 24.78 45.11 24.73 45.8 22.13 48.04 16.25 48.24 16.33 46 22.2 45.32 24.78"></polygon></g><path id="contourZoneClair02" class="cls-4" d="m31.72,65.01l-.02-.03-.04-.08-.07-.13-.34-.62.24,1.14v.06s.02,0,.02,0h.03s.01,0,.01,0c.02-.03.04-.08.07-.13h.02s.11.04.11.04l.05-.12-.08-.13Zm18.27,6.98v-.04s0-.06,0-.06v-.06s0-.01,0-.01h-.02s0,0,0,0h0s.01-.05.01-.05l-.08-.03h0s-.52-.19-.52-.19l.09.09.1.11.13.14.05.05.16.42.19.5-.08-.87Zm-18.28-7.01l-.04-.08-.07-.13-.34-.62.24,1.14v.06s.02,0,.02,0h.03l.06-.14h.02c.03-.05.06-.12.1-.21l-.02-.03Zm18.28,7.01v-.04s0-.06,0-.06v-.06s0-.01,0-.01h-.02s0,0,0,0h0s.01-.05.01-.05l-.08-.03h0s-.52-.19-.52-.19l.09.09.1.11.13.14.05.05.16.42.19.5-.08-.87Zm-18.28-7.01l-.04-.08-.07-.13-.34-.62.24,1.14v.06s.02,0,.02,0h.03l.06-.14h.02c.03-.05.06-.12.1-.21l-.02-.03Zm18.28,7.01v-.04s0-.06,0-.06v-.06s0-.01,0-.01h-.02s0,0,0,0h0s.01-.05.01-.05l-.08-.03h0s-.52-.19-.52-.19l.09.09.1.11.13.14.05.05.16.42.19.5-.08-.87Zm-18.28-7.01l-.04-.08-.07-.13-.34-.62.24,1.14v.06s.02,0,.02,0h.03l.06-.14h.02c.03-.05.06-.12.1-.21l-.02-.03Zm18.28,7.01v-.04s0-.06,0-.06v-.06s0-.01,0-.01h-.02s0,0,0,0h0s.01-.05.01-.05l-.08-.03h0s-.52-.19-.52-.19l.09.09.1.11.13.14.05.05.16.42.19.5-.08-.87Zm-18.28-7.01l-.04-.08-.07-.13-.34-.62.24,1.14v.06s.02,0,.02,0h.03l.06-.14h.02c.03-.05.06-.12.1-.21l-.02-.03Zm18.28,7.01v-.04s0-.06,0-.06v-.06s0-.01,0-.01h-.02s0,0,0,0h0s.01-.05.01-.05l-.08-.03h0s-.52-.19-.52-.19l.09.09.1.11.13.14.05.05.16.42.19.5-.08-.87Zm-18.33-7.09l-.07-.13-.34-.62.24,1.14v.06s.02,0,.02,0h.03l.06-.14h.02c.03-.05.06-.12.1-.21l-.02-.03-.04-.08Zm24.11,21.47l-5.42-14.28h0s-.04-.1-.04-.1l-.06-.15v-.02s-.01,0-.01,0l-.04-.11-.05-.09-.14-.15-14.1-15.33-.05-.05-.1-.11v-.02s-.02-.08-.02-.08h0s-.07-.27-.07-.27l-3.82-15.22h-.04s-.17-.06-.17-.06l-.06-.02h0l-.17-.05h0s-.07.06-.07.06l-.13.12-4.28,3.9-.02.02-.16.15-4.32,3.94-.07.06-.06.06v.06s-.05.26-.05.26l9.11,16.57.05.09h0s.05.08.05.08l.02.02,19.35,18.08.04.04h.01s.02.02.02.02l.05.05.03.02h.02s.05.05.05.05l.18.11,4.16,2.73.06-.05.06-.05h.02s.03-.04.03-.04h0s.03-.03.03-.03l.15-.12h0s0,0,0,0l.04-.03-.02-.05Zm-4.47-2.95l-.11-.1-.16-.15h0s-.08-.07-.08-.07l-18.62-17.39h0s0-.01,0-.01l-.38-.36-.09-.08-.06-.11-.08-.13-.02-.03-.04-.08-.07-.13-.34-.62h0s-.02-.05-.02-.05l-.06-.11h0s-8.35-15.19-8.35-15.19l4.23-3.86.14-.12h0s.04-.04.04-.04l4.21-3.83,3.81,15.21.02.04.04.08.1.11h0s13.94,15.15,13.94,15.15l.09.09.1.11.13.14.05.05.16.42.19.5.09.22h0s.02.07.02.07l4.81,12.69-3.68-2.41Zm-19.6-18.44l-.04-.08-.07-.13-.34-.62.24,1.14v.06s.02,0,.02,0h.03l.06-.14h.02c.03-.05.06-.12.1-.21l-.02-.03Zm18.28,7.01v-.04s0-.06,0-.06v-.06s0-.01,0-.01h-.02s0,0,0,0h0s.01-.05.01-.05l-.08-.03h0s-.52-.19-.52-.19l.09.09.1.11.13.14.05.05.16.42.19.5-.08-.87Zm-18.28-7.01l-.04-.08-.07-.13-.34-.62.24,1.14v.06s.02,0,.02,0h.03l.06-.14h.02c.03-.05.06-.12.1-.21l-.02-.03Zm18.28,7.01v-.04s0-.06,0-.06v-.06s0-.01,0-.01h-.02s0,0,0,0h0s.01-.05.01-.05l-.08-.03h0s-.52-.19-.52-.19l.09.09.1.11.13.14.05.05.16.42.19.5-.08-.87Zm-18.28-7.01l-.04-.08-.07-.13-.34-.62.24,1.14v.06s.02,0,.02,0h.03l.06-.14h.02c.03-.05.06-.12.1-.21l-.02-.03Zm18.28,7.01v-.04s0-.06,0-.06v-.06s0-.01,0-.01h-.02s0,0,0,0h0s.01-.05.01-.05l-.08-.03h0s-.52-.19-.52-.19l.09.09.1.11.13.14.05.05.16.42.19.5-.08-.87Zm-18.28-7.01l-.04-.08-.07-.13-.34-.62.24,1.14v.06s.02,0,.02,0h.03l.06-.14h.02c.03-.05.06-.12.1-.21l-.02-.03Zm18.28,7.01v-.04s0-.06,0-.06v-.06s0-.01,0-.01h-.02s0,0,0,0h0s.01-.05.01-.05l-.08-.03h0s-.52-.19-.52-.19l.09.09.1.11.13.14.05.05.16.42.19.5-.08-.87Zm-18.28-7.01l-.04-.08-.07-.13-.34-.62.24,1.14v.06s.02,0,.02,0h.03s0,0,0,0l.06-.14h.02c.03-.05.06-.12.1-.21l-.02-.03Zm18.28,7.01v-.04s0-.06,0-.06v-.06s0-.01,0-.01h-.02s0,0,0,0h0s.01-.05.01-.05l-.08-.03h0s-.52-.19-.52-.19l.09.09.1.11.13.14.05.05.16.42.19.5-.08-.87Zm-18.13-6.73l-.06-.11-.08-.13-.02-.03-.04-.08-.07-.13-.34-.62.24,1.14v.06s.02,0,.02,0h.03s.01,0,.01,0h.15s.04-.09.04-.09l.2.07-.09-.08Z"></path><path id="contourZoneClair" class="cls-4" d="m73.28,67.41l-.09-.05h0l-.02-.02-.05.02-.09.04h-.03s-.23.12-.23.12h-.01s0,.04,0,.04l-1.62,8.96-6.23-12.62-.15-.31v-.02s-.11-.2-.11-.2l-.08-.16h0s-.04-.09-.04-.09l-4.45-9.01.06-.15.22-.53h0v-.02l1.62-3.89-.04-.2v-.05s-.02-.06-.02-.06l-.1-.09-3.39-3.18-.05-.05-.09-.02h-.06s-.14-.04-.14-.04l-4.64,2.06-.03.08-.02.04-.07.15-.03.07,3.06,8.57-7.06-2.91,1.06-6.73.03-.19v-.04s0-.02,0-.02l-.03-.32v-.05s-.03-.3-.03-.3l-.98-11.54-.06-.05-.07-.05-.11-.08h0l-.09-.07-1.85.43h0l-.12.03-.16.04h0l-.1.02-.2.19-2.31,8.72h0s-.02.05-.02.05h0s.11.62.11.62v.06s.04.03.04.03l-.09.12-.05.06.11-.03.22-.06h0s.02-.07.02-.07l2.44-9.2,1.77-.41.98,11.66v.03s0,.02,0,.02v.15s0,.06,0,.06h0s-1.09,6.95-1.09,6.95h0s-.01.09-.01.09l.07.12.09.17,7.75,3.19.07.03.18-.17h0s.02-.02.02-.02l.15-.15v-.03s-.01,0-.01,0l-.06-.16-2.9-8.13h0s-.16-.45-.16-.45h0s0,0,0,0h0s-.05-.13-.05-.13l4.25-1.89,3.27,3.08-1.83,4.38h0s-.03.08-.03.08l-.03.06v.1s0,.01,0,.01v.11s.02.04.02.04l.05.09,4.22,8.54h0s.23.48.23.48l.11.21h0s.19-.11.19-.11l.1-.06.02.02h0s.03.06.03.06l.12.25,6.63,13.55h0s0,.02,0,.02h.01s.27-.06.27-.06v-.02s1.67-9.24,1.67-9.24l7.47,4.4c.05-.06.09-.12.14-.18.06-.08.12-.16.19-.25l-7.74-4.56Zm-23.34-37.45v-.05s-.07-.17-.07-.17l-1.55-4.85-.02-.05-.05-.09-.02-.03-.02-.02-2.16-2.64-.06-.07h0s-.03.08-.03.08l-.02.06-.08.22h-.01s-.05.25-.05.25l.08.09,1.72,2.1h.01s.18.23.18.23l.03.03,1.46,4.58-4.94-1.82-.1-.04-.07.18-.02.18-1.14,8.12-.02.17.28-.27.02-.18,1.04-7.6,4.99,1.83.11.04.07.03.05.02.05.02h.02s.04-.04.04-.04l.31-.3v-.04Zm33.01,30.18l-.11-.05-4.72-1.18-7.21-9.8.77-2.26-.03-.24-2.06-3.09-.19-.12-2.78-.33-9.73-18.27-.1-.11-3.39-2.03-4.95-6.66-.4-.03-.07.07-.16.16-.13.13-3.68,3.65h-.01v.25s-.02.13-.02.13h0s.09.12.09.12l.06.07,1.59,1.95.09.11.08.09,1.72,2.1h.01s.18.23.18.23l.03.03,1.46,4.58-4.94-1.82-.1-.04h-.04s-.09.04-.09.04l-.22.13-.05.03v.02s-.03.18-.03.18l-.99,7.24-2.75-6.65-.07-.17-.02-.04h-.13s-.08-.02-.08-.02h0l-.21-.02h-.05s-.03.04-.03.04l-.05.08-4.75,6.69-.08.11v.03s.01.08.01.08h0s0,.1,0,.1v.04s0,0,0,0h0s0,.04,0,.04v.07s0,0,0,0l.03.03.1.09,9.29,8.85.12.11.09-.03h.01s0,0,0,0l.11-.03.22-.06h0s.02-.07.02-.07l2.44-9.2,1.77-.41.98,11.66v.03s0,.02,0,.02v.15s0,.06,0,.06h0s-1.09,6.95-1.09,6.95h0s-.01.09-.01.09l.07.12.09.17,7.75,3.19.07.03.18-.17h0s.02-.02.02-.02l.15-.15v-.03s-.01,0-.01,0l-.06-.16-2.9-8.13h0s-.16-.45-.16-.45h0s0,0,0,0h0s-.05-.13-.05-.13l4.25-1.89,3.27,3.08-1.83,4.38h0s-.03.08-.03.08l-.03.06v.1s0,.01,0,.01v.11s.02.04.02.04l.05.09,4.22,8.54h0s.23.48.23.48l.11.21h0s.09.19.09.19l6.63,13.43v.02s.13.25.13.25h0s.14-.01.14-.01l.13-.02h.01s.22-.03.22-.03l.03-.15v-.02s1.67-9.24,1.67-9.24l7.47,4.4c.05-.06.09-.12.14-.18.06-.08.12-.16.19-.25l-7.74-4.56-.09-.05h0l-.02-.02-.05.02-.09.04h-.03s-.23.12-.23.12h-.01s0,.04,0,.04l-1.62,8.96-6.23-12.62-.15-.31v-.02s-.11-.2-.11-.2l-.08-.16h0s-.04-.09-.04-.09l-4.45-9.01.06-.15.22-.53h0v-.02l1.62-3.89-.04-.2v-.05s-.02-.06-.02-.06l-.1-.09-3.39-3.18-.05-.05-.09-.02h-.06s-.14-.04-.14-.04l-4.64,2.06-.03.08-.02.04-.07.15-.03.07,3.06,8.57-7.06-2.91,1.06-6.73.03-.19v-.04s0-.02,0-.02l-.03-.32v-.05s-.03-.3-.03-.3l-.98-11.54-.06-.05-.07-.05-.11-.08h0l-.09-.07-1.85.43h0l-.12.03-.16.04h0l-.1.02-.2.19-2.31,8.72h0s-.02.05-.02.05h0s-.06.22-.06.22l-.15-.14-8.54-8.13-.14-.13-.12-.11-.09-.09,4.49-6.33,2.95,7.14v.03s.01,0,.01,0l.07.16h.1s.2-.04.2-.04h.02s.03,0,.03,0l.17-.02.02-.16.02-.17.02-.18,1.04-7.6,4.99,1.83.11.04.07.03.05.02.05.02h.02s.04-.04.04-.04l.31-.3v-.04s-.03-.05-.03-.05l-.05-.17-1.55-4.85-.02-.05-.05-.09-.02-.03-.02-.02-2.16-2.64-.06-.07h0s-.1-.12-.1-.12l-1.37-1.67,3.21-3.19.22-.22.03-.03h0s.12-.12.12-.12l.08-.08,4.71,6.34.09.12.05.05h0s.02.02.02.02l3.26,1.96.06.04.05.03.02.04.05.09,3.47,6.51h0s.09.18.09.18l.02.04,3.16,5.94.06.11.05.1,2.83,5.31h0s.07.06.07.06l.1.07h0l.03.02,2.8.33.02.02.04.06.09.13,1.78,2.67-.77,2.26.04.25h0s.03.05.03.05l.02.03.27.37.06.08,6.75,9.17.12.16.03.04.07.09.15.1,4.75,1.19.05.04.15.12h0l.09.08h0l3.13,2.56s.04-.08.05-.13c.02-.03.03-.06.04-.1.02-.05.05-.11.07-.16.02-.04.04-.08.05-.13l-3.36-2.75Zm-39.91-23.62l.17-.02.02-.16-.19.19Zm6.9-6.56v-.05s-.07-.17-.07-.17l-1.55-4.85-.02-.05-.05-.09-.02-.03-.02-.02-2.16-2.64-.06-.07h0s-.03.08-.03.08l-.02.06-.08.22h-.01s-.05.25-.05.25l.08.09,1.72,2.1h.01s.18.23.18.23l.03.03,1.46,4.58-4.94-1.82-.1-.04-.07.18-.02.18-1.14,8.12-.02.17.28-.27.02-.18,1.04-7.6,4.99,1.83.11.04.07.03.05.02.05.02h.02s.04-.04.04-.04l.31-.3v-.04Zm23.34,37.45l-.09-.05h0l-.02-.02-.05.02-.09.04h-.03s-.23.12-.23.12h-.01s0,.04,0,.04l-1.62,8.96-6.23-12.62-.15-.31v-.02s-.11-.2-.11-.2l-.08-.16h0s-.04-.09-.04-.09l-4.45-9.01.06-.15.22-.53h0v-.02l1.62-3.89-.04-.2v-.05s-.02-.06-.02-.06l-.1-.09-3.39-3.18-.05-.05-.09-.02h-.06s-.14-.04-.14-.04l-4.64,2.06-.03.08-.02.04-.07.15-.03.07,3.06,8.57-7.06-2.91,1.06-6.73.03-.19v-.04s0-.02,0-.02l-.03-.32v-.05s-.03-.3-.03-.3l-.98-11.54-.06-.05-.07-.05-.11-.08h0l-.09-.07-1.85.43h0l-.12.03-.16.04h0l-.1.02-.2.19-2.31,8.72h0s-.02.05-.02.05h0s.11.62.11.62v.06s.04.03.04.03l-.09.12-.05.06.11-.03.22-.06h0s.02-.07.02-.07l2.44-9.2,1.77-.41.98,11.66v.03s0,.02,0,.02v.15s0,.06,0,.06h0s-1.09,6.95-1.09,6.95h0s-.01.09-.01.09l.07.12.09.17,7.75,3.19.07.03.18-.17h0s.02-.02.02-.02l.15-.15v-.03s-.01,0-.01,0l-.06-.16-2.9-8.13h0s-.16-.45-.16-.45h0s0,0,0,0h0s-.05-.13-.05-.13l4.25-1.89,3.27,3.08-1.83,4.38h0s-.03.08-.03.08l-.03.06v.1s0,.01,0,.01v.11s.02.04.02.04l.05.09,4.22,8.54h0s.23.48.23.48l.11.21h0s.19-.11.19-.11l.1-.06.02.02h0s.03.06.03.06l.12.25,6.63,13.55h0s0,.02,0,.02h.01s.27-.06.27-.06v-.02s1.67-9.24,1.67-9.24l7.47,4.4c.05-.06.09-.12.14-.18.06-.08.12-.16.19-.25l-7.74-4.56Z"></path><path id="contourMontagneFin" class="cls-4" d="m82.86,60.24l-4.14-1.04h-.02s-.66-.17-.66-.17l-.04-.05h0s-6.73-9.14-6.73-9.14l-.03-.04-.03-.04-.45-.61h0s.81-2.4.81-2.4l-2.13-3.2-2.91-.34-9.77-18.33-.02-.04-3.45-2.07-5.01-6.74-.33.02-5.33.33-1.03,2.07-2.1.35-.18,1.93-5.32,3.26-.52,2.23-3.11,1.73v4.64l-4.23,2.54-.05.03-.07.3-.04.18-.75,3.29-4.14,1.73v5.74s-4.52,6.85-4.52,6.85l-.06.09-.02.04-5.06,4.05h-.02s-.06-.01-.06-.01l-2.71-1.18-4.36,4.89-.86,1.13s.02.04.03.06c.03.08.06.15.09.22l.94-1.24,4.23-4.74,2.57,1.12.13.06.04.02.05-.04,5.13-4.11h.02s.03-.04.03-.04l.11-.16,4.44-6.72.09-.13h0s.03-.05.03-.05l.02-.03h0s0-5.61,0-5.61v-.04h0s.2-.08.2-.08l3.53-1.47.24-.1h.03s.02-.02.02-.02h0l.07-.03.75-3.31.04-.18h0s0-.04,0-.04l.06-.26,4.09-2.46.21-.12h0s.01-.01.01-.01v-4.64l3-1.66.08-.04v-.04s.03-.11.03-.11l.46-1.99h0s.02-.09.02-.09h0s.11-.08.11-.08l5.08-3.11.11-.07.04-.02v-.07s.17-1.79.17-1.79l2.02-.34h0v-.02s.1-.18.1-.18l.93-1.86,4.86-.3.34-.02h.11s0,0,0,0h.03s.01.01.01.01l.05.07,4.82,6.48.06.09.12.07h0l3.23,1.95.06.04h0s0,0,0,0h0s.02.02.02.02h0s0,.02,0,.02h0s.05.09.05.09l3.56,6.68,3.22,6.05.02.03.05.11,2.84,5.32.03.06.02.03.02.03h.1s2.83.35,2.83.35l.07.11.08.13,1.83,2.75-.79,2.33-.03.08.02.03.02.03.18.24h0s.06.08.06.08l6.86,9.3.12.16.02.03.14.19,4.8,1.2h.03s.11.1.11.1h0l.09.08,3.21,2.63s.03-.06.04-.1c.02-.05.05-.11.07-.16l-3.39-2.77Z"></path><g id="point_-_copie_4"><circle class="cls-4" cx="11.43" cy="57.59" r=".82"></circle><circle class="cls-4" cx="8.73" cy="56.51" r=".82"></circle><circle class="cls-4" cx="16.56" cy="53.55" r=".82"></circle><circle class="cls-4" cx="31.64" cy="65.37" r=".82"></circle><circle class="cls-4" cx="21.15" cy="46.53" r=".82"></circle><circle class="cls-4" cx="21.15" cy="40.86" r=".82"></circle><circle class="cls-4" cx="25.27" cy="39.18" r=".82"></circle><circle class="cls-4" cx="26.16" cy="35.58" r=".82"></circle><circle class="cls-4" cx="34.62" cy="35.71" r=".82"></circle><circle class="cls-4" cx="26.93" cy="44.7" r=".82"></circle><circle class="cls-4" cx="31.61" cy="40.48" r=".82"></circle><circle class="cls-4" cx="22.46" cy="48.83" r=".82"></circle><circle class="cls-4" cx="30.39" cy="32.85" r=".82"></circle><circle class="cls-4" cx="30.31" cy="28.17" r=".82"></circle><circle class="cls-4" cx="33.54" cy="26.47" r=".82"></circle><circle class="cls-4" cx="34.11" cy="24.17" r=".82"></circle><circle class="cls-4" cx="39.36" cy="20.9" r=".82"></circle><circle class="cls-4" cx="39.56" cy="18.88" r=".82"></circle><circle class="cls-4" cx="41.62" cy="18.56" r=".82"></circle><circle class="cls-4" cx="42.75" cy="16.42" r=".82"></circle><circle class="cls-4" cx="48.12" cy="16.38" r=".82"></circle><circle class="cls-4" cx="44.12" cy="20.02" r=".82"></circle><circle class="cls-4" cx="45.79" cy="22.18" r=".82"></circle><circle class="cls-4" cx="42.23" cy="23.81" r=".82"></circle><circle class="cls-4" cx="45.23" cy="24.54" r=".82"></circle><circle class="cls-4" cx="47.99" cy="24.84" r=".82"></circle><circle class="cls-4" cx="53.14" cy="22.95" r=".82"></circle><circle class="cls-4" cx="56.62" cy="25.1" r=".82"></circle><circle class="cls-4" cx="60.13" cy="31.63" r=".82"></circle><circle class="cls-4" cx="49.66" cy="30" r=".82"></circle><circle class="cls-4" cx="46.78" cy="35.2" r=".82"></circle><circle class="cls-4" cx="44.14" cy="28.2" r=".82"></circle><circle class="cls-4" cx="39.71" cy="28.71" r=".82"></circle><circle class="cls-4" cx="42.85" cy="36.36" r=".82"></circle><circle class="cls-4" cx="44.27" cy="44.61" r=".82"></circle><circle class="cls-4" cx="49.92" cy="46.87" r=".82"></circle><circle class="cls-4" cx="49.1" cy="54" r=".82"></circle><circle class="cls-4" cx="61.61" cy="49.45" r=".82"></circle><circle class="cls-4" cx="69.28" cy="43.86" r=".82"></circle><circle class="cls-4" cx="56.75" cy="57.31" r=".82"></circle><circle class="cls-4" cx="50.07" cy="71.82" r=".82"></circle><circle class="cls-4" cx="73.06" cy="67.69" r=".82"></circle><circle class="cls-4" cx="77.66" cy="58.97" r=".82"></circle><circle class="cls-4" cx="70.49" cy="49.38" r=".82"></circle><circle class="cls-4" cx="82.78" cy="60.47" r=".82"></circle><circle class="cls-4" cx="53.66" cy="48.2" r=".82"></circle><circle class="cls-4" cx="58.13" cy="46.16" r=".82"></circle><circle class="cls-4" cx="63.5" cy="37.82" r=".82"></circle><circle class="cls-4" cx="66.21" cy="43.32" r=".82"></circle><circle class="cls-4" cx="59.8" cy="54.11" r=".82"></circle><circle class="cls-4" cx="64.32" cy="63.44" r=".82"></circle><circle class="cls-4" cx="71.17" cy="77.41" r=".82"></circle><circle class="cls-4" cx="51.06" cy="83.72" r=".82"></circle><circle class="cls-4" cx="55.53" cy="86.52" r=".82"></circle><circle class="cls-4" cx="35.54" cy="56.05" r=".82"></circle><circle class="cls-4" cx="24.93" cy="72.89" r=".82"></circle><circle class="cls-4" cx="49.02" cy="34.81" r=".82"></circle><path class="cls-29" d="m109.7,56.83c0-7.96,4.13-14.9,14.08-14.9h1.23c6.5,0,11.38,3.04,11.38,8.57,0,2.02-.73,3.42-2.6,3.42h-.15c-1.64,0-2.31-1.05-2.52-2.31-.35-2.93-2.75-4.39-6.47-4.39h-.5c-6.76,0-8.75,4.8-8.75,9.63,0,6.96,4.19,10.13,11.36,10.13,2.69,0,4.8-.44,6.76-1.14,1.35-.47,2.14.18,2.14,1.52v1.08c0,1.14-.56,1.81-1.49,2.22-2.4,1.08-5.24,1.55-8.14,1.55-10.01,0-16.33-5.5-16.33-15.39Z"></path><path class="cls-29" d="m156.06,62.22v-19.99c0-1.9-1.14-3.04-3.01-3.04h-5.36c-1.2,0-2.11-.82-2.11-2.02v-1.11c0-1.2.91-2.02,2.11-2.02h7.67c3.92,0,6.5,2.6,6.5,6.5v21.13c0,2.93,1.93,4.89,4.89,4.89h4.98c1.2,0,2.08.76,2.08,1.99v.97c0,1.2-.88,1.99-2.08,1.99h-6.64c-5.68,0-9.01-3.66-9.01-9.28Z"></path><path class="cls-29" d="m181.23,63.15c0-5.27,2.81-8.96,8.98-8.96h12.23v-1.29c0-4.65-1.9-5.79-8.14-5.79-4.42,0-6.88.58-7.81.7-.99.15-1.81-.53-1.81-1.64v-1.35c0-2.05,4.98-2.9,10.57-2.9,8.6,0,12.88,1.99,12.88,10.04v17.82c0,1-.61,1.7-1.61,1.7h-1.84c-.94,0-1.58-.7-1.73-1.7l-.44-2.9c-1.96,3.19-5.71,5.33-10.59,5.33h-.97c-6.03,0-9.72-3.04-9.72-9.07Zm11.15,4.33h1c4.51,0,9.07-1.7,9.07-6.47v-2.49h-10.92c-3.48,0-4.59,1.79-4.59,4.36,0,3.07,1.64,4.59,5.44,4.59Z"></path><path class="cls-29" d="m224.26,71.49l3.86-6.73-11.35-20.13c-.73-1.35.15-2.11,1.4-2.11h2.69c1.02,0,1.43.47,2.05,1.58l8.37,15.07,8.52-15.07c.61-1.11,1.02-1.58,2.05-1.58h2.66c1.26,0,2.14.76,1.4,2.11l-15.45,27.39c-.61,1.11-1.05,1.58-2.08,1.58h-2.72c-1.26,0-2.17-.76-1.4-2.11Z"></path><path class="cls-29" d="m262.13,69.24l-9.25-24.55c-.47-1.26.06-2.17,1.46-2.17h2.11c1.08,0,1.79.5,2.14,1.49l7.81,21.16c.12.32.35.47.67.47h.56c.32,0,.56-.15.67-.47l7.78-21.16c.35-1,1.05-1.49,2.14-1.49h2.11c1.4,0,1.93.91,1.46,2.17l-9.25,24.55c-.61,1.7-1.43,2.25-3.28,2.25h-3.86c-1.81,0-2.63-.56-3.28-2.25Z"></path><path class="cls-29" d="m289.61,57.09c0-9.37,4.77-15.16,13.96-15.16h1.08c9.13,0,12.41,5.56,12.41,12.47,0,2.81-.56,4.07-3.16,4.07h-18.64c.23,5.38,2.63,8.78,11,8.78h.38c3.89,0,6.23-.7,7.17-.85.94-.15,1.46.47,1.46,1.41v1.55c0,1.93-5,2.87-9.39,2.87h-.64c-11.33,0-15.63-6.29-15.63-15.13Zm22.36-2.96c-.09-4.48-2.11-7.17-7.49-7.17h-.64c-5.09,0-7.73,2.49-8.4,7.17h16.54Z"></path><path class="cls-29" d="m332.84,69.62c0,1.2-.67,1.87-1.87,1.87h-2.05c-1.2,0-1.87-.67-1.87-1.87v-25.23c0-1.2.67-1.87,1.87-1.87h1.84c1.17,0,1.87.64,1.93,1.84l.15,3.6h.82c1.52-3.69,4.77-6.03,9.6-6.03,6.09,0,10.33,3.8,10.33,10.27v1.52c0,2.05-.85,2.9-2.34,2.9h-1.23c-1.29,0-2.08-.7-2.08-1.73v-1.41c0-4.59-3.34-6.2-6.91-6.2-5.12,0-8.19,3.39-8.19,9.77v12.56Z"></path><path class="cls-29" d="m361.61,57.09c0-9.37,4.77-15.16,13.96-15.16h1.08c9.13,0,12.41,5.56,12.41,12.47,0,2.81-.56,4.07-3.16,4.07h-18.64c.23,5.38,2.63,8.78,11,8.78h.38c3.89,0,6.23-.7,7.17-.85.94-.15,1.46.47,1.46,1.41v1.55c0,1.93-5,2.87-9.39,2.87h-.64c-11.33,0-15.63-6.29-15.63-15.13Zm22.36-2.96c-.09-4.48-2.11-7.17-7.49-7.17h-.64c-5.09,0-7.73,2.49-8.4,7.17h16.54Z"></path><path class="cls-29" d="m398.78,68.57v-.85c0-1.43,1-2.11,2.37-1.79,1.7.41,4.74,1.29,9.8,1.29,5.94,0,7.55-1.17,7.55-3.83s-1.52-3.34-5.09-3.83l-5.59-.73c-6-.79-9.16-3.1-9.16-8.37,0-5.56,3.51-8.52,12.64-8.52,5.44,0,11.03,1.05,11.03,3.69v.79c0,1.35-.91,1.99-2.4,1.67-1.73-.41-4.33-1.2-8.75-1.2-5.41,0-6.91,1.17-6.91,3.57s1.49,3.25,5.18,3.75l5.85.79c5.39.73,8.84,2.43,8.84,8.22s-3.19,9.01-13.64,9.01c-5.65,0-11.74-1.05-11.74-3.66Z"></path><path class="cls-29" d="m441.51,62.28v-14.81h-6.64c-1.08,0-1.96-.76-1.96-1.99v-.97c0-1.2.88-1.99,1.96-1.99h6.64v-4.83c0-1.2.61-1.87,1.84-1.87h2.11c1.2,0,1.84.67,1.84,1.87v4.83h11.79c1.2,0,2.08.79,2.08,1.99v.97c0,1.23-.88,1.99-2.08,1.99h-11.79v13.9c0,3.39,1.73,5.18,5.15,5.18h6.5c1.2,0,2.08.76,2.08,1.99v.97c0,1.2-.88,1.99-2.08,1.99h-8.52c-5.79,0-8.93-3.42-8.93-9.22Z"></path></g></g></svg> 